{
    "asset" : {
        "generator" : "Khronos glTF Blender I/O v0.9.36",
        "version" : "2.0"
    },
    "scene" : 0,
    "scenes" : [
        {
            "name" : "Scene",
            "nodes" : [
                0,
                1,
                2
            ]
        }
    ],
    "nodes" : [
        {
            "name" : "Light",
            "rotation" : [
                0.16907575726509094,
                0.7558803558349609,
                -0.27217137813568115,
                0.570947527885437
            ],
            "translation" : [
                4.076245307922363,
                5.903861999511719,
                -1.0054539442062378
            ]
        },
        {
            "name" : "Camera",
            "rotation" : [
                0.483536034822464,
                0.33687159419059753,
                -0.20870360732078552,
                0.7804827094078064
            ],
            "translation" : [
                7.358891487121582,
                4.958309173583984,
                6.925790786743164
            ]
        },
        {
            "mesh" : 0,
            "name" : "Donut_01",
            "rotation" : [
                0.7071068286895752,
                0,
                0,
                0.7071067094802856
            ]
        }
    ],
    "materials" : [
        {
            "alphaMode" : "BLEND",
            "doubleSided" : true,
            "name" : "F06292",
            "pbrMetallicRoughness" : {
                "baseColorFactor" : [
                    0.8799999952316284,
                    0.11999999731779099,
                    0.28999999165534973,
                    1
                ],
                "metallicFactor" : 1,
                "roughnessFactor" : 0.6732679605484009
            }
        },
        {
            "alphaMode" : "BLEND",
            "doubleSided" : true,
            "name" : "80DEEA",
            "pbrMetallicRoughness" : {
                "baseColorFactor" : [
                    0.2199999988079071,
                    0.7400000095367432,
                    0.8299999833106995,
                    1
                ],
                "metallicFactor" : 1,
                "roughnessFactor" : 0.6732679605484009
            }
        },
        {
            "alphaMode" : "BLEND",
            "doubleSided" : true,
            "name" : "DD9944",
            "pbrMetallicRoughness" : {
                "baseColorFactor" : [
                    0.7300000190734863,
                    0.33000001311302185,
                    0.05000000074505806,
                    1
                ],
                "metallicFactor" : 1,
                "roughnessFactor" : 0.6732679605484009
            }
        }
    ],
    "meshes" : [
        {
            "name" : "Donut_01",
            "primitives" : [
                {
                    "attributes" : {
                        "POSITION" : 0,
                        "NORMAL" : 1
                    },
                    "indices" : 2,
                    "material" : 0
                },
                {
                    "attributes" : {
                        "POSITION" : 3,
                        "NORMAL" : 4
                    },
                    "indices" : 5,
                    "material" : 1
                },
                {
                    "attributes" : {
                        "POSITION" : 6,
                        "NORMAL" : 7
                    },
                    "indices" : 8,
                    "material" : 2
                }
            ]
        }
    ],
    "accessors" : [
        {
            "bufferView" : 0,
            "componentType" : 5126,
            "count" : 1614,
            "max" : [
                4.838034152984619,
                4.990023136138916,
                -1.619866967201233
            ],
            "min" : [
                -4.938401222229004,
                -5.019137859344482,
                -4.19912576675415
            ],
            "type" : "VEC3"
        },
        {
            "bufferView" : 1,
            "componentType" : 5126,
            "count" : 1614,
            "type" : "VEC3"
        },
        {
            "bufferView" : 2,
            "componentType" : 5123,
            "count" : 2430,
            "type" : "SCALAR"
        },
        {
            "bufferView" : 3,
            "componentType" : 5126,
            "count" : 288,
            "max" : [
                4.412304878234863,
                4.581754207611084,
                -3.261183977127075
            ],
            "min" : [
                -4.537100791931152,
                -4.443007946014404,
                -4.300074100494385
            ],
            "type" : "VEC3"
        },
        {
            "bufferView" : 4,
            "componentType" : 5126,
            "count" : 288,
            "type" : "VEC3"
        },
        {
            "bufferView" : 5,
            "componentType" : 5123,
            "count" : 432,
            "type" : "SCALAR"
        },
        {
            "bufferView" : 6,
            "componentType" : 5126,
            "count" : 1296,
            "max" : [
                4.911065101623535,
                4.902757167816162,
                -0.04950900003314018
            ],
            "min" : [
                -4.877859115600586,
                -4.902757167816162,
                -3.367795944213867
            ],
            "type" : "VEC3"
        },
        {
            "bufferView" : 7,
            "componentType" : 5126,
            "count" : 1296,
            "type" : "VEC3"
        },
        {
            "bufferView" : 8,
            "componentType" : 5123,
            "count" : 1944,
            "type" : "SCALAR"
        }
    ],
    "bufferViews" : [
        {
            "buffer" : 0,
            "byteLength" : 19368,
            "byteOffset" : 0
        },
        {
            "buffer" : 0,
            "byteLength" : 19368,
            "byteOffset" : 19368
        },
        {
            "buffer" : 0,
            "byteLength" : 4860,
            "byteOffset" : 38736
        },
        {
            "buffer" : 0,
            "byteLength" : 3456,
            "byteOffset" : 43596
        },
        {
            "buffer" : 0,
            "byteLength" : 3456,
            "byteOffset" : 47052
        },
        {
            "buffer" : 0,
            "byteLength" : 864,
            "byteOffset" : 50508
        },
        {
            "buffer" : 0,
            "byteLength" : 15552,
            "byteOffset" : 51372
        },
        {
            "buffer" : 0,
            "byteLength" : 15552,
            "byteOffset" : 66924
        },
        {
            "buffer" : 0,
            "byteLength" : 3888,
            "byteOffset" : 82476
        }
    ],
    "buffers" : [
        {
            "byteLength" : 86364,
            "uri" : "data:application/octet-stream;base64,"
        }
    ]
}
