{
    "asset" : {
        "generator" : "Khronos glTF Blender I/O v0.9.36",
        "version" : "2.0"
    },
    "scene" : 0,
    "scenes" : [
        {
            "name" : "Scene",
            "nodes" : [
                0,
                1,
                2,
                3,
                4,
                5,
                6,
                7
            ]
        }
    ],
    "nodes" : [
        {
            "name" : "Light",
            "rotation" : [
                0.16907575726509094,
                0.7558803558349609,
                -0.27217137813568115,
                0.570947527885437
            ],
            "translation" : [
                4.076245307922363,
                5.903861999511719,
                -1.0054539442062378
            ]
        },
        {
            "name" : "Camera",
            "rotation" : [
                0.483536034822464,
                0.33687159419059753,
                -0.20870360732078552,
                0.7804827094078064
            ],
            "translation" : [
                7.358891487121582,
                4.958309173583984,
                6.925790786743164
            ]
        },
        {
            "mesh" : 0,
            "name" : "group1054568923",
            "rotation" : [
                0.7071068286895752,
                0,
                0,
                0.7071067094802856
            ]
        },
        {
            "mesh" : 1,
            "name" : "group1710014429",
            "rotation" : [
                0.7071068286895752,
                0,
                0,
                0.7071067094802856
            ]
        },
        {
            "mesh" : 2,
            "name" : "group1342639984",
            "rotation" : [
                0.7071068286895752,
                0,
                0,
                0.7071067094802856
            ]
        },
        {
            "mesh" : 3,
            "name" : "group500549351",
            "rotation" : [
                0.7071068286895752,
                0,
                0,
                0.7071067094802856
            ]
        },
        {
            "mesh" : 4,
            "name" : "group125599753",
            "rotation" : [
                0.7071068286895752,
                0,
                0,
                0.7071067094802856
            ]
        },
        {
            "mesh" : 5,
            "name" : "group1900056852",
            "rotation" : [
                0.7071068286895752,
                0,
                0,
                0.7071067094802856
            ]
        }
    ],
    "materials" : [
        {
            "emissiveFactor" : [
                0,
                0,
                0
            ],
            "name" : "mat19",
            "pbrMetallicRoughness" : {
                "baseColorFactor" : [
                    0.7400000095367432,
                    0.33000001311302185,
                    0.05999999865889549,
                    1
                ],
                "metallicFactor" : 0,
                "roughnessFactor" : 1
            }
        },
        {
            "emissiveFactor" : [
                0,
                0,
                0
            ],
            "name" : "mat23",
            "pbrMetallicRoughness" : {
                "baseColorFactor" : [
                    0.009999999776482582,
                    0.009999999776482582,
                    0.009999999776482582,
                    1
                ],
                "metallicFactor" : 0,
                "roughnessFactor" : 1
            }
        },
        {
            "emissiveFactor" : [
                0,
                0,
                0
            ],
            "name" : "mat21",
            "pbrMetallicRoughness" : {
                "baseColorFactor" : [
                    1,
                    1,
                    1,
                    1
                ],
                "metallicFactor" : 0,
                "roughnessFactor" : 1
            }
        },
        {
            "emissiveFactor" : [
                0,
                0,
                0
            ],
            "name" : "mat18",
            "pbrMetallicRoughness" : {
                "baseColorFactor" : [
                    1,
                    0.6100000143051147,
                    0.25,
                    1
                ],
                "metallicFactor" : 0,
                "roughnessFactor" : 1
            }
        },
        {
            "emissiveFactor" : [
                0,
                0,
                0
            ],
            "name" : "mat9",
            "pbrMetallicRoughness" : {
                "baseColorFactor" : [
                    0.27000001072883606,
                    0.550000011920929,
                    0.07000000029802322,
                    1
                ],
                "metallicFactor" : 0,
                "roughnessFactor" : 1
            }
        }
    ],
    "meshes" : [
        {
            "name" : "mesh1054568923",
            "primitives" : [
                {
                    "attributes" : {
                        "POSITION" : 0,
                        "NORMAL" : 1,
                        "TEXCOORD_0" : 2
                    },
                    "indices" : 3,
                    "material" : 0
                },
                {
                    "attributes" : {
                        "POSITION" : 4,
                        "NORMAL" : 5,
                        "TEXCOORD_0" : 6
                    },
                    "indices" : 7,
                    "material" : 1
                },
                {
                    "attributes" : {
                        "POSITION" : 8,
                        "NORMAL" : 9,
                        "TEXCOORD_0" : 10
                    },
                    "indices" : 11,
                    "material" : 2
                },
                {
                    "attributes" : {
                        "POSITION" : 12,
                        "NORMAL" : 13,
                        "TEXCOORD_0" : 14
                    },
                    "indices" : 7,
                    "material" : 3
                }
            ]
        },
        {
            "name" : "mesh1710014429",
            "primitives" : [
                {
                    "attributes" : {
                        "POSITION" : 15,
                        "NORMAL" : 16,
                        "TEXCOORD_0" : 17
                    },
                    "indices" : 18,
                    "material" : 1
                }
            ]
        },
        {
            "name" : "mesh1342639984",
            "primitives" : [
                {
                    "attributes" : {
                        "POSITION" : 19,
                        "NORMAL" : 20,
                        "TEXCOORD_0" : 21
                    },
                    "indices" : 22,
                    "material" : 1
                }
            ]
        },
        {
            "name" : "mesh500549351",
            "primitives" : [
                {
                    "attributes" : {
                        "POSITION" : 23,
                        "NORMAL" : 24,
                        "TEXCOORD_0" : 25
                    },
                    "indices" : 26,
                    "material" : 1
                },
                {
                    "attributes" : {
                        "POSITION" : 27,
                        "NORMAL" : 28,
                        "TEXCOORD_0" : 29
                    },
                    "indices" : 30,
                    "material" : 0
                }
            ]
        },
        {
            "name" : "mesh125599753",
            "primitives" : [
                {
                    "attributes" : {
                        "POSITION" : 31,
                        "NORMAL" : 32,
                        "TEXCOORD_0" : 33
                    },
                    "indices" : 34,
                    "material" : 0
                },
                {
                    "attributes" : {
                        "POSITION" : 35,
                        "NORMAL" : 36,
                        "TEXCOORD_0" : 37
                    },
                    "indices" : 38,
                    "material" : 2
                }
            ]
        },
        {
            "name" : "mesh1900056852",
            "primitives" : [
                {
                    "attributes" : {
                        "POSITION" : 39,
                        "NORMAL" : 40,
                        "TEXCOORD_0" : 41
                    },
                    "indices" : 42,
                    "material" : 1
                },
                {
                    "attributes" : {
                        "POSITION" : 43,
                        "NORMAL" : 44,
                        "TEXCOORD_0" : 45
                    },
                    "indices" : 46,
                    "material" : 4
                }
            ]
        }
    ],
    "accessors" : [
        {
            "bufferView" : 0,
            "componentType" : 5126,
            "count" : 228,
            "max" : [
                0.15888869762420654,
                0.29827719926834106,
                -0.02428554929792881
            ],
            "min" : [
                -0.3542763888835907,
                -0.28392601013183594,
                -0.6973236799240112
            ],
            "type" : "VEC3"
        },
        {
            "bufferView" : 1,
            "componentType" : 5126,
            "count" : 228,
            "type" : "VEC3"
        },
        {
            "bufferView" : 2,
            "componentType" : 5126,
            "count" : 228,
            "type" : "VEC2"
        },
        {
            "bufferView" : 3,
            "componentType" : 5123,
            "count" : 228,
            "type" : "SCALAR"
        },
        {
            "bufferView" : 4,
            "componentType" : 5126,
            "count" : 6,
            "max" : [
                -0.3374035060405731,
                -0.26444271206855774,
                -0.2884424924850464
            ],
            "min" : [
                -0.3542763888835907,
                -0.28392601013183594,
                -0.3075349032878876
            ],
            "type" : "VEC3"
        },
        {
            "bufferView" : 5,
            "componentType" : 5126,
            "count" : 6,
            "type" : "VEC3"
        },
        {
            "bufferView" : 6,
            "componentType" : 5126,
            "count" : 6,
            "type" : "VEC2"
        },
        {
            "bufferView" : 7,
            "componentType" : 5123,
            "count" : 6,
            "type" : "SCALAR"
        },
        {
            "bufferView" : 8,
            "componentType" : 5126,
            "count" : 18,
            "max" : [
                -0.009078978560864925,
                0.05383044108748436,
                -0.1892666071653366
            ],
            "min" : [
                -0.3542763888835907,
                -0.28392601013183594,
                -0.4333791136741638
            ],
            "type" : "VEC3"
        },
        {
            "bufferView" : 9,
            "componentType" : 5126,
            "count" : 18,
            "type" : "VEC3"
        },
        {
            "bufferView" : 10,
            "componentType" : 5126,
            "count" : 18,
            "type" : "VEC2"
        },
        {
            "bufferView" : 11,
            "componentType" : 5123,
            "count" : 18,
            "type" : "SCALAR"
        },
        {
            "bufferView" : 12,
            "componentType" : 5126,
            "count" : 6,
            "max" : [
                0.06917385756969452,
                0.24013499915599823,
                -0.27066799998283386
            ],
            "min" : [
                -0.15473850071430206,
                -0.20225229859352112,
                -0.6622365713119507
            ],
            "type" : "VEC3"
        },
        {
            "bufferView" : 13,
            "componentType" : 5126,
            "count" : 6,
            "type" : "VEC3"
        },
        {
            "bufferView" : 14,
            "componentType" : 5126,
            "count" : 6,
            "type" : "VEC2"
        },
        {
            "bufferView" : 15,
            "componentType" : 5126,
            "count" : 408,
            "max" : [
                -0.14142149686813354,
                -0.030515609309077263,
                -0.29400479793548584
            ],
            "min" : [
                -0.20590700209140778,
                -0.09542567282915115,
                -0.35911211371421814
            ],
            "type" : "VEC3"
        },
        {
            "bufferView" : 16,
            "componentType" : 5126,
            "count" : 408,
            "type" : "VEC3"
        },
        {
            "bufferView" : 17,
            "componentType" : 5126,
            "count" : 408,
            "type" : "VEC2"
        },
        {
            "bufferView" : 18,
            "componentType" : 5123,
            "count" : 576,
            "type" : "SCALAR"
        },
        {
            "bufferView" : 19,
            "componentType" : 5126,
            "count" : 408,
            "max" : [
                -0.07732479274272919,
                -0.12310220301151276,
                -0.35772109031677246
            ],
            "min" : [
                -0.14254319667816162,
                -0.1886667013168335,
                -0.4229317009449005
            ],
            "type" : "VEC3"
        },
        {
            "bufferView" : 20,
            "componentType" : 5126,
            "count" : 408,
            "type" : "VEC3"
        },
        {
            "bufferView" : 21,
            "componentType" : 5126,
            "count" : 408,
            "type" : "VEC2"
        },
        {
            "bufferView" : 22,
            "componentType" : 5123,
            "count" : 576,
            "type" : "SCALAR"
        },
        {
            "bufferView" : 23,
            "componentType" : 5126,
            "count" : 147,
            "max" : [
                0.4760031998157501,
                0.25635799765586853,
                0.532066822052002
            ],
            "min" : [
                -0.16486459970474243,
                -0.26235029101371765,
                0.15555350482463837
            ],
            "type" : "VEC3"
        },
        {
            "bufferView" : 24,
            "componentType" : 5126,
            "count" : 147,
            "type" : "VEC3"
        },
        {
            "bufferView" : 25,
            "componentType" : 5126,
            "count" : 147,
            "type" : "VEC2"
        },
        {
            "bufferView" : 26,
            "componentType" : 5123,
            "count" : 147,
            "type" : "SCALAR"
        },
        {
            "bufferView" : 27,
            "componentType" : 5126,
            "count" : 165,
            "max" : [
                0.47773200273513794,
                0.25635799765586853,
                0.5077580213546753
            ],
            "min" : [
                -0.1360694020986557,
                -0.25079289078712463,
                -0.2464112937450409
            ],
            "type" : "VEC3"
        },
        {
            "bufferView" : 28,
            "componentType" : 5126,
            "count" : 165,
            "type" : "VEC3"
        },
        {
            "bufferView" : 29,
            "componentType" : 5126,
            "count" : 165,
            "type" : "VEC2"
        },
        {
            "bufferView" : 30,
            "componentType" : 5123,
            "count" : 165,
            "type" : "SCALAR"
        },
        {
            "bufferView" : 31,
            "componentType" : 5126,
            "count" : 249,
            "max" : [
                0.4764901101589203,
                0.4672606885433197,
                0.5443400144577026
            ],
            "min" : [
                -0.3448024094104767,
                -0.1191352978348732,
                0.18728210031986237
            ],
            "type" : "VEC3"
        },
        {
            "bufferView" : 32,
            "componentType" : 5126,
            "count" : 249,
            "type" : "VEC3"
        },
        {
            "bufferView" : 33,
            "componentType" : 5126,
            "count" : 249,
            "type" : "VEC2"
        },
        {
            "bufferView" : 34,
            "componentType" : 5123,
            "count" : 249,
            "type" : "SCALAR"
        },
        {
            "bufferView" : 35,
            "componentType" : 5126,
            "count" : 51,
            "max" : [
                -0.1393508017063141,
                0.0369381308555603,
                0.5103970170021057
            ],
            "min" : [
                -0.3448024094104767,
                -0.22950230538845062,
                0.3417535126209259
            ],
            "type" : "VEC3"
        },
        {
            "bufferView" : 36,
            "componentType" : 5126,
            "count" : 51,
            "type" : "VEC3"
        },
        {
            "bufferView" : 37,
            "componentType" : 5126,
            "count" : 51,
            "type" : "VEC2"
        },
        {
            "bufferView" : 38,
            "componentType" : 5123,
            "count" : 51,
            "type" : "SCALAR"
        },
        {
            "bufferView" : 39,
            "componentType" : 5126,
            "count" : 75,
            "max" : [
                0.7920072078704834,
                0.7161241173744202,
                0.6809874773025513
            ],
            "min" : [
                -0.4739777147769928,
                -0.5245308876037598,
                0.4571133852005005
            ],
            "type" : "VEC3"
        },
        {
            "bufferView" : 40,
            "componentType" : 5126,
            "count" : 75,
            "type" : "VEC3"
        },
        {
            "bufferView" : 41,
            "componentType" : 5126,
            "count" : 75,
            "type" : "VEC2"
        },
        {
            "bufferView" : 42,
            "componentType" : 5123,
            "count" : 75,
            "type" : "SCALAR"
        },
        {
            "bufferView" : 43,
            "componentType" : 5126,
            "count" : 21,
            "max" : [
                0.7908396124839783,
                0.7161241173744202,
                0.567940890789032
            ],
            "min" : [
                -0.4739777147769928,
                -0.5245308876037598,
                0.4571133852005005
            ],
            "type" : "VEC3"
        },
        {
            "bufferView" : 44,
            "componentType" : 5126,
            "count" : 21,
            "type" : "VEC3"
        },
        {
            "bufferView" : 45,
            "componentType" : 5126,
            "count" : 21,
            "type" : "VEC2"
        },
        {
            "bufferView" : 46,
            "componentType" : 5123,
            "count" : 21,
            "type" : "SCALAR"
        }
    ],
    "bufferViews" : [
        {
            "buffer" : 0,
            "byteLength" : 2736,
            "byteOffset" : 0
        },
        {
            "buffer" : 0,
            "byteLength" : 2736,
            "byteOffset" : 2736
        },
        {
            "buffer" : 0,
            "byteLength" : 1824,
            "byteOffset" : 5472
        },
        {
            "buffer" : 0,
            "byteLength" : 456,
            "byteOffset" : 7296
        },
        {
            "buffer" : 0,
            "byteLength" : 72,
            "byteOffset" : 7752
        },
        {
            "buffer" : 0,
            "byteLength" : 72,
            "byteOffset" : 7824
        },
        {
            "buffer" : 0,
            "byteLength" : 48,
            "byteOffset" : 7896
        },
        {
            "buffer" : 0,
            "byteLength" : 12,
            "byteOffset" : 7944
        },
        {
            "buffer" : 0,
            "byteLength" : 216,
            "byteOffset" : 7956
        },
        {
            "buffer" : 0,
            "byteLength" : 216,
            "byteOffset" : 8172
        },
        {
            "buffer" : 0,
            "byteLength" : 144,
            "byteOffset" : 8388
        },
        {
            "buffer" : 0,
            "byteLength" : 36,
            "byteOffset" : 8532
        },
        {
            "buffer" : 0,
            "byteLength" : 72,
            "byteOffset" : 8568
        },
        {
            "buffer" : 0,
            "byteLength" : 72,
            "byteOffset" : 8640
        },
        {
            "buffer" : 0,
            "byteLength" : 48,
            "byteOffset" : 8712
        },
        {
            "buffer" : 0,
            "byteLength" : 4896,
            "byteOffset" : 8760
        },
        {
            "buffer" : 0,
            "byteLength" : 4896,
            "byteOffset" : 13656
        },
        {
            "buffer" : 0,
            "byteLength" : 3264,
            "byteOffset" : 18552
        },
        {
            "buffer" : 0,
            "byteLength" : 1152,
            "byteOffset" : 21816
        },
        {
            "buffer" : 0,
            "byteLength" : 4896,
            "byteOffset" : 22968
        },
        {
            "buffer" : 0,
            "byteLength" : 4896,
            "byteOffset" : 27864
        },
        {
            "buffer" : 0,
            "byteLength" : 3264,
            "byteOffset" : 32760
        },
        {
            "buffer" : 0,
            "byteLength" : 1152,
            "byteOffset" : 36024
        },
        {
            "buffer" : 0,
            "byteLength" : 1764,
            "byteOffset" : 37176
        },
        {
            "buffer" : 0,
            "byteLength" : 1764,
            "byteOffset" : 38940
        },
        {
            "buffer" : 0,
            "byteLength" : 1176,
            "byteOffset" : 40704
        },
        {
            "buffer" : 0,
            "byteLength" : 294,
            "byteOffset" : 41880
        },
        {
            "buffer" : 0,
            "byteLength" : 1980,
            "byteOffset" : 42176
        },
        {
            "buffer" : 0,
            "byteLength" : 1980,
            "byteOffset" : 44156
        },
        {
            "buffer" : 0,
            "byteLength" : 1320,
            "byteOffset" : 46136
        },
        {
            "buffer" : 0,
            "byteLength" : 330,
            "byteOffset" : 47456
        },
        {
            "buffer" : 0,
            "byteLength" : 2988,
            "byteOffset" : 47788
        },
        {
            "buffer" : 0,
            "byteLength" : 2988,
            "byteOffset" : 50776
        },
        {
            "buffer" : 0,
            "byteLength" : 1992,
            "byteOffset" : 53764
        },
        {
            "buffer" : 0,
            "byteLength" : 498,
            "byteOffset" : 55756
        },
        {
            "buffer" : 0,
            "byteLength" : 612,
            "byteOffset" : 56256
        },
        {
            "buffer" : 0,
            "byteLength" : 612,
            "byteOffset" : 56868
        },
        {
            "buffer" : 0,
            "byteLength" : 408,
            "byteOffset" : 57480
        },
        {
            "buffer" : 0,
            "byteLength" : 102,
            "byteOffset" : 57888
        },
        {
            "buffer" : 0,
            "byteLength" : 900,
            "byteOffset" : 57992
        },
        {
            "buffer" : 0,
            "byteLength" : 900,
            "byteOffset" : 58892
        },
        {
            "buffer" : 0,
            "byteLength" : 600,
            "byteOffset" : 59792
        },
        {
            "buffer" : 0,
            "byteLength" : 150,
            "byteOffset" : 60392
        },
        {
            "buffer" : 0,
            "byteLength" : 252,
            "byteOffset" : 60544
        },
        {
            "buffer" : 0,
            "byteLength" : 252,
            "byteOffset" : 60796
        },
        {
            "buffer" : 0,
            "byteLength" : 168,
            "byteOffset" : 61048
        },
        {
            "buffer" : 0,
            "byteLength" : 42,
            "byteOffset" : 61216
        }
    ],
    "buffers" : [
        {
            "byteLength" : 61260,
            "uri" : "data:application/octet-stream;base64,"
        }
    ]
}
