{
    "asset" : {
        "generator" : "Khronos glTF Blender I/O v0.9.36",
        "version" : "2.0"
    },
    "scene" : 0,
    "scenes" : [
        {
            "name" : "Scene",
            "nodes" : [
                0,
                1,
                2
            ]
        }
    ],
    "nodes" : [
        {
            "name" : "Light",
            "rotation" : [
                0.16907575726509094,
                0.7558803558349609,
                -0.27217137813568115,
                0.570947527885437
            ],
            "translation" : [
                4.076245307922363,
                5.903861999511719,
                -1.0054539442062378
            ]
        },
        {
            "name" : "Camera",
            "rotation" : [
                0.483536034822464,
                0.33687159419059753,
                -0.20870360732078552,
                0.7804827094078064
            ],
            "translation" : [
                7.358891487121582,
                4.958309173583984,
                6.925790786743164
            ]
        },
        {
            "mesh" : 0,
            "name" : "Node",
            "rotation" : [
                0,
                0.7071067094802856,
                -0.7071068286895752,
                -3.0908616110991716e-08
            ],
            "scale" : [
                5,
                5,
                5
            ],
            "translation" : [
                -0.1544894278049469,
                0.30105629563331604,
                0.19806340336799622
            ]
        }
    ],
    "materials" : [
        {
            "emissiveFactor" : [
                0,
                0,
                0
            ],
            "name" : "mat7",
            "pbrMetallicRoughness" : {
                "baseColorFactor" : [
                    0.8700000047683716,
                    0.11999999731779099,
                    0.28999999165534973,
                    1
                ],
                "metallicFactor" : 0,
                "roughnessFactor" : 1
            }
        },
        {
            "emissiveFactor" : [
                0,
                0,
                0
            ],
            "name" : "mat15",
            "pbrMetallicRoughness" : {
                "baseColorFactor" : [
                    0.6299999952316284,
                    0.699999988079071,
                    0.7200000286102295,
                    1
                ],
                "metallicFactor" : 0,
                "roughnessFactor" : 1
            }
        },
        {
            "emissiveFactor" : [
                0,
                0,
                0
            ],
            "name" : "mat23",
            "pbrMetallicRoughness" : {
                "baseColorFactor" : [
                    0.009999999776482582,
                    0.009999999776482582,
                    0.009999999776482582,
                    1
                ],
                "metallicFactor" : 0,
                "roughnessFactor" : 1
            }
        },
        {
            "emissiveFactor" : [
                0,
                0,
                0
            ],
            "name" : "mat21",
            "pbrMetallicRoughness" : {
                "baseColorFactor" : [
                    1,
                    1,
                    1,
                    1
                ],
                "metallicFactor" : 0,
                "roughnessFactor" : 1
            }
        },
        {
            "emissiveFactor" : [
                0,
                0,
                0
            ],
            "name" : "mat19",
            "pbrMetallicRoughness" : {
                "baseColorFactor" : [
                    0.7400000095367432,
                    0.33000001311302185,
                    0.05999999865889549,
                    1
                ],
                "metallicFactor" : 0,
                "roughnessFactor" : 1
            }
        }
    ],
    "meshes" : [
        {
            "name" : "Node-Mesh",
            "primitives" : [
                {
                    "attributes" : {
                        "POSITION" : 0,
                        "NORMAL" : 1
                    },
                    "indices" : 2,
                    "material" : 0
                },
                {
                    "attributes" : {
                        "POSITION" : 3,
                        "NORMAL" : 4
                    },
                    "indices" : 5,
                    "material" : 1
                },
                {
                    "attributes" : {
                        "POSITION" : 6,
                        "NORMAL" : 7
                    },
                    "indices" : 8,
                    "material" : 2
                },
                {
                    "attributes" : {
                        "POSITION" : 9,
                        "NORMAL" : 10
                    },
                    "indices" : 11,
                    "material" : 3
                },
                {
                    "attributes" : {
                        "POSITION" : 12,
                        "NORMAL" : 13
                    },
                    "indices" : 14,
                    "material" : 4
                }
            ]
        }
    ],
    "accessors" : [
        {
            "bufferView" : 0,
            "componentType" : 5126,
            "count" : 678,
            "max" : [
                0.2475920021533966,
                0.7398511171340942,
                0.6068621277809143
            ],
            "min" : [
                -0.7161107063293457,
                -0.08824104070663452,
                -0.014158009551465511
            ],
            "type" : "VEC3"
        },
        {
            "bufferView" : 1,
            "componentType" : 5126,
            "count" : 678,
            "type" : "VEC3"
        },
        {
            "bufferView" : 2,
            "componentType" : 5123,
            "count" : 678,
            "type" : "SCALAR"
        },
        {
            "bufferView" : 3,
            "componentType" : 5126,
            "count" : 394,
            "max" : [
                0.41769200563430786,
                0.298013299703598,
                0.735653281211853
            ],
            "min" : [
                0.0453927181661129,
                -0.1706158071756363,
                -0.050693269819021225
            ],
            "type" : "VEC3"
        },
        {
            "bufferView" : 4,
            "componentType" : 5126,
            "count" : 394,
            "type" : "VEC3"
        },
        {
            "bufferView" : 5,
            "componentType" : 5123,
            "count" : 396,
            "type" : "SCALAR"
        },
        {
            "bufferView" : 6,
            "componentType" : 5126,
            "count" : 3756,
            "max" : [
                0.0955602377653122,
                0.4008871018886566,
                0.3538511097431183
            ],
            "min" : [
                -0.4415731132030487,
                -0.16785749793052673,
                -0.25717678666114807
            ],
            "type" : "VEC3"
        },
        {
            "bufferView" : 7,
            "componentType" : 5126,
            "count" : 3756,
            "type" : "VEC3"
        },
        {
            "bufferView" : 8,
            "componentType" : 5123,
            "count" : 3768,
            "type" : "SCALAR"
        },
        {
            "bufferView" : 9,
            "componentType" : 5126,
            "count" : 1148,
            "max" : [
                0.06492145359516144,
                -0.056523650884628296,
                -0.10781999677419662
            ],
            "min" : [
                -0.02944111078977585,
                -0.13002529740333557,
                -0.15973269939422607
            ],
            "type" : "VEC3"
        },
        {
            "bufferView" : 10,
            "componentType" : 5126,
            "count" : 1148,
            "type" : "VEC3"
        },
        {
            "bufferView" : 11,
            "componentType" : 5123,
            "count" : 1152,
            "type" : "SCALAR"
        },
        {
            "bufferView" : 12,
            "componentType" : 5126,
            "count" : 1638,
            "max" : [
                0.0988210067152977,
                0.13213670253753662,
                0.1610672026872635
            ],
            "min" : [
                -0.0879349634051323,
                -0.15359510481357574,
                -0.20325960218906403
            ],
            "type" : "VEC3"
        },
        {
            "bufferView" : 13,
            "componentType" : 5126,
            "count" : 1638,
            "type" : "VEC3"
        },
        {
            "bufferView" : 14,
            "componentType" : 5123,
            "count" : 1638,
            "type" : "SCALAR"
        }
    ],
    "bufferViews" : [
        {
            "buffer" : 0,
            "byteLength" : 8136,
            "byteOffset" : 0
        },
        {
            "buffer" : 0,
            "byteLength" : 8136,
            "byteOffset" : 8136
        },
        {
            "buffer" : 0,
            "byteLength" : 1356,
            "byteOffset" : 16272
        },
        {
            "buffer" : 0,
            "byteLength" : 4728,
            "byteOffset" : 17628
        },
        {
            "buffer" : 0,
            "byteLength" : 4728,
            "byteOffset" : 22356
        },
        {
            "buffer" : 0,
            "byteLength" : 792,
            "byteOffset" : 27084
        },
        {
            "buffer" : 0,
            "byteLength" : 45072,
            "byteOffset" : 27876
        },
        {
            "buffer" : 0,
            "byteLength" : 45072,
            "byteOffset" : 72948
        },
        {
            "buffer" : 0,
            "byteLength" : 7536,
            "byteOffset" : 118020
        },
        {
            "buffer" : 0,
            "byteLength" : 13776,
            "byteOffset" : 125556
        },
        {
            "buffer" : 0,
            "byteLength" : 13776,
            "byteOffset" : 139332
        },
        {
            "buffer" : 0,
            "byteLength" : 2304,
            "byteOffset" : 153108
        },
        {
            "buffer" : 0,
            "byteLength" : 19656,
            "byteOffset" : 155412
        },
        {
            "buffer" : 0,
            "byteLength" : 19656,
            "byteOffset" : 175068
        },
        {
            "buffer" : 0,
            "byteLength" : 3276,
            "byteOffset" : 194724
        }
    ],
    "buffers" : [
        {
            "byteLength" : 198000,
            "uri" : "data:application/octet-stream;base64,"
        }
    ]
}
